{
.appVersion = "983";
copyright = "Copyright 2016 Google Inc. All Rights Reserved.";
customParameters = (
{
name = description;
value = "Designed by Monotype design team.";
},
{
name = license;
value = "This Font Software is licensed under the SIL Open Font License, Version 1.1. This Font Software is distributed on an \"AS IS\" BASIS, WITHOUT WARRANTIES OR CONDITIONS OF ANY KIND, either express or implied. See the SIL Open Font License for the specific language, permissions and limitations governing your use of this Font Software.";
},
{
name = licenseURL;
value = "http://scripts.sil.org/OFL";
},
{
name = vendorID;
value = GOOG;
},
{
name = trademark;
value = "Noto is a trademark of Google Inc.";
},
{
name = fsType;
value = (
);
},
{
name = panose;
value = (
2,
11,
5,
2,
4,
5,
4,
2,
2,
4
);
},
{
name = unicodeRanges;
value = (
84
);
},
{
name = codePageRanges;
value = (
1252
);
},
{
name = glyphOrder;
value = (
.notdef,
null,
uni000D,
space,
uni1720,
uni1721,
uni1722,
uni1723,
uni1724,
uni1725,
uni1726,
uni1727,
uni1728,
uni1729,
uni172A,
uni172B,
uni172C,
uni172D,
uni172E,
uni172F,
uni1730,
uni1731,
uni1732,
uni1733,
uni1734,
uni1735,
uni1736,
uni1725_i,
uni1725_u,
uni1726_u,
uni1727_i,
uni1727_u,
uni1729_i,
uni1729_u,
uni172B_u,
uni172D_i,
uni172D_u,
uni172E_u,
uni1730_u,
uni1731_i,
uni1731_u,
uni1735.alt,
uni1736.alt
);
}
);
date = "2016-12-02 00:53:47 +0000";
designer = "Monotype Design Team";
designerURL = "http://www.monotype.com/studio";
disablesNiceNames = 1;
familyName = "Noto Sans Hanunoo";
features = (
{

glyphs = (
{
glyphname = .notdef;
lastChange = "2016-11-10 13:56:02 +0000";
layers = (
{
layerId = "E064BCF7-6859-417C-9FBE-6CECC66FEE3E";
paths = (
{
closed = 1;
nodes = (
"1034 0 LINE",
"1034 1462 LINE",
"193 1462 LINE",
"193 0 LINE"
);
},
{
closed = 1;
nodes = (
"297 1358 LINE",
"930 1358 LINE",
"930 104 LINE",
"297 104 LINE"
);
}
);
width = 1229;
}
);
note = .notdef;
},
{
glyphname = uni1720;
lastChange = "2016-11-10 13:56:02 +0000";
layers = (
{
layerId = "E064BCF7-6859-417C-9FBE-6CECC66FEE3E";
paths = (
{
closed = 1;
nodes = (
"455 0 LINE",
"800 216 OFFCURVE",
"1267 649 OFFCURVE",
"1855 1298 CURVE",
"1659 1298 LINE",
"1250 842 OFFCURVE",
"814 434 OFFCURVE",
"489 190 CURVE",
"510 260 OFFCURVE",
"549 420 OFFCURVE",
"608 670 CURVE SMOOTH",
"656 867 OFFCURVE",
"680 992 OFFCURVE",
"680 1047 CURVE SMOOTH",
"680 1095 OFFCURVE",
"655 1145 OFFCURVE",
"592 1145 CURVE SMOOTH",
"549 1145 OFFCURVE",
"501 1132 OFFCURVE",
"446 1106 CURVE SMOOTH",
"106 940 LINE",
"63 756 LINE",
"518 979 LINE",
"293 0 LINE"
);
}
);
width = 1802;
}
);
note = uni1720;
unicode = 1720;
},
{
glyphname = uni1721;
lastChange = "2016-11-10 13:56:02 +0000";
layers = (
{
layerId = "E064BCF7-6859-417C-9FBE-6CECC66FEE3E";
paths = (
{
closed = 1;
nodes = (
"449 0 LINE",
"794 216 OFFCURVE",
"1261 649 OFFCURVE",
"1849 1298 CURVE",
"1653 1298 LINE",
"1244 842 OFFCURVE",
"808 434 OFFCURVE",
"483 190 CURVE",
"549 442 LINE",
"678 983 LINE SMOOTH",
"704 1094 OFFCURVE",
"717 1166 OFFCURVE",
"717 1200 CURVE SMOOTH",
"717 1249 OFFCURVE",
"692 1298 OFFCURVE",
"629 1298 CURVE SMOOTH",
"586 1298 OFFCURVE",
"538 1285 OFFCURVE",
"483 1260 CURVE SMOOTH",
"143 1096 LINE",
"100 909 LINE",
"555 1133 LINE",
"287 0 LINE"
);
},
{
closed = 1;
nodes = (
"1381 290 OFFCURVE",
"1553 423 OFFCURVE",
"1708 569 CURVE",
"1606 678 LINE",
"1494 574 OFFCURVE",
"1388 480 OFFCURVE",
"1104 289 CURVE",
"1192 170 LINE"
);
}
);
width = 1794;
}
);
note = uni1721;
unicode = 1721;
},
{
glyphname = uni1722;
lastChange = "2016-11-10 13:56:02 +0000";
layers = (
{
layerId = "E064BCF7-6859-417C-9FBE-6CECC66FEE3E";
paths = (
{
closed = 1;
nodes = (
"436 0 LINE",
"1071 623 LINE",
"1071 741 LINE",
"522 741 LINE",
"1071 1217 LINE",
"1071 1298 LINE",
"954 1267 OFFCURVE",
"823 1251 OFFCURVE",
"680 1251 CURVE SMOOTH",
"557 1251 OFFCURVE",
"465 1255 OFFCURVE",
"293 1298 CURVE",
"240 1169 LINE",
"343 1128 OFFCURVE",
"468 1108 OFFCURVE",
"614 1108 CURVE SMOOTH",
"649 1108 OFFCURVE",
"693 1112 OFFCURVE",
"748 1120 CURVE",
"695 1079 OFFCURVE",
"533 942 OFFCURVE",
"264 707 CURVE",
"264 602 LINE",
"842 602 LINE",
"236 0 LINE"
);
}
);
width = 1067;
}
);
note = uni1722;
unicode = 1722;
},
{
glyphname = uni1723;
lastChange = "2016-11-10 13:56:02 +0000";
layers = (
{
layerId = "E064BCF7-6859-417C-9FBE-6CECC66FEE3E";
paths = (
{
closed = 1;
nodes = (
"328 0 LINE",
"600 717 LINE",
"686 664 OFFCURVE",
"775 637 OFFCURVE",
"866 637 CURVE SMOOTH",
"1061 637 OFFCURVE",
"1212 788 OFFCURVE",
"1212 971 CURVE SMOOTH",
"1212 1164 OFFCURVE",
"1079 1298 OFFCURVE",
"899 1298 CURVE SMOOTH",
"728 1298 OFFCURVE",
"605 1193 OFFCURVE",
"530 983 CURVE",
"465 1069 OFFCURVE",
"425 1174 OFFCURVE",
"410 1298 CURVE",
"258 1298 LINE",
"276 1129 OFFCURVE",
"348 972 OFFCURVE",
"473 829 CURVE",
"160 0 LINE"
);
},
{
closed = 1;
nodes = (
"779 776 OFFCURVE",
"710 801 OFFCURVE",
"651 852 CURVE",
"714 1035 OFFCURVE",
"782 1159 OFFCURVE",
"905 1159 CURVE SMOOTH",
"996 1159 OFFCURVE",
"1065 1094 OFFCURVE",
"1065 985 CURVE SMOOTH",
"1065 870 OFFCURVE",
"988 776 OFFCURVE",
"860 776 CURVE SMOOTH"
);
}
);
width = 1284;
}
);
note = uni1723;
unicode = 1723;
},
{
glyphname = uni1724;
lastChange = "2016-11-10 13:56:02 +0000";
layers = (
{
layerId = "E064BCF7-6859-417C-9FBE-6CECC66FEE3E";
paths = (
{
closed = 1;
nodes = (
"305 0 LINE",
"810 554 OFFCURVE",
"1089 861 OFFCURVE",
"1141 921 CURVE SMOOTH",
"1193 980 OFFCURVE",
"1228 1021 OFFCURVE",
"1245 1044 CURVE",
"1188 811 LINE",
"999 0 LINE",
"1163 0 LINE",
"1462 1298 LINE",
"1300 1298 LINE",
"596 535 LINE",
"469 389 LINE",
"360 254 LINE",
"375 301 OFFCURVE",
"388 350 OFFCURVE",
"399 403 CURVE SMOOTH",
"606 1298 LINE",
"442 1298 LINE",
"143 0 LINE"
);
}
);
width = 1606;
}
);
note = uni1724;
unicode = 1724;
},
{
glyphname = uni1725;
lastChange = "2016-11-10 13:44:54 +0000";
layers = (
{
layerId = "E064BCF7-6859-417C-9FBE-6CECC66FEE3E";
paths = (
{
closed = 1;
nodes = (
"305 0 LINE",
"506 129 OFFCURVE",
"723 304 OFFCURVE",
"958 526 CURVE",
"1354 98 LINE",
"1462 197 LINE",
"1069 629 LINE",
"1212 770 OFFCURVE",
"1425 993 OFFCURVE",
"1706 1298 CURVE",
"1509 1298 LINE",
"1100 842 OFFCURVE",
"665 434 OFFCURVE",
"340 190 CURVE",
"406 442 LINE",
"606 1298 LINE",
"442 1298 LINE",
"143 0 LINE"
);
}
);
width = 1649;
}
);
note = uni1725;
unicode = 1725;
},
{
glyphname = uni1726;
lastChange = "2016-11-10 13:56:02 +0000";
layers = (
{
layerId = "E064BCF7-6859-417C-9FBE-6CECC66FEE3E";
paths = (
{
closed = 1;
nodes = (
"305 0 LINE",
"938 823 LINE SMOOTH",
"1037 958 OFFCURVE",
"1095 1040 OFFCURVE",
"1112 1067 CURVE",
"1109 1045 OFFCURVE",
"1102 952 OFFCURVE",
"1090 788 CURVE SMOOTH",
"1049 0 LINE",
"1210 0 LINE",
"2046 1298 LINE",
"1872 1298 LINE",
"1479 687 OFFCURVE",
"1274 367 OFFCURVE",
"1258 339 CURVE SMOOTH",
"1241 311 OFFCURVE",
"1224 281 OFFCURVE",
"1206 248 CURVE",
"1221 341 OFFCURVE",
"1230 435 OFFCURVE",
"1233 532 CURVE SMOOTH",
"1276 1298 LINE",
"1114 1298 LINE",
"362 303 LINE",
"385 374 OFFCURVE",
"415 486 OFFCURVE",
"452 639 CURVE SMOOTH",
"488 792 OFFCURVE",
"539 1011 OFFCURVE",
"606 1298 CURVE",
"442 1298 LINE",
"143 0 LINE"
);
}
);
width = 1966;
}
);
note = uni1726;
unicode = 1726;
},
{
glyphname = uni1727;
lastChange = "2016-11-10 13:56:02 +0000";
layers = (
{
layerId = "E064BCF7-6859-417C-9FBE-6CECC66FEE3E";
paths = (
{
closed = 1;
nodes = (
"444 0 LINE",
"693 156 OFFCURVE",
"950 379 OFFCURVE",
"1191 615 CURVE SMOOTH",
"1432 850 OFFCURVE",
"1660 1094 OFFCURVE",
"1845 1298 CURVE",
"1649 1298 LINE",
"1506 1141 OFFCURVE",
"1348 972 OFFCURVE",
"1184 811 CURVE SMOOTH",
"1020 650 OFFCURVE",
"849 493 OFFCURVE",
"688 358 CURVE SMOOTH",
"654 331 OFFCURVE",
"619 302 OFFCURVE",
"583 272 CURVE SMOOTH",
"546 242 OFFCURVE",
"512 215 OFFCURVE",
"479 190 CURVE",
"494 241 OFFCURVE",
"507 286 OFFCURVE",
"516 325 CURVE SMOOTH",
"525 364 OFFCURVE",
"535 403 OFFCURVE",
"545 442 CURVE SMOOTH",
"555 483 LINE SMOOTH",
"567 534 OFFCURVE",
"577 575 OFFCURVE",
"585 607 CURVE SMOOTH",
"592 639 OFFCURVE",
"598 666 OFFCURVE",
"602 687 CURVE SMOOTH",
"610 730 OFFCURVE",
"612 758 OFFCURVE",
"612 797 CURVE SMOOTH",
"612 846 OFFCURVE",
"587 895 OFFCURVE",
"524 895 CURVE SMOOTH",
"477 895 OFFCURVE",
"434 875 OFFCURVE",
"379 854 CURVE SMOOTH",
"45 719 LINE",
"4 541 LINE",
"449 725 LINE",
"283 0 LINE"
);
},
{
closed = 1;
nodes = (
"682 1024 LINE",
"764 1380 LINE",
"600 1380 LINE",
"518 1024 LINE"
);
}
);
width = 1782;
}
);
note = uni1727;
unicode = 1727;
},
{
glyphname = uni1728;
lastChange = "2016-11-10 13:56:02 +0000";
layers = (
{
layerId = "E064BCF7-6859-417C-9FBE-6CECC66FEE3E";
paths = (
{
closed = 1;
nodes = (
"584 0 LINE",
"889 985 LINE",
"996 916 OFFCURVE",
"1123 862 OFFCURVE",
"1272 823 CURVE",
"1016 0 LINE",
"1182 0 LINE",
"1427 791 LINE",
"1544 782 LINE",
"1727 782 OFFCURVE",
"1864 893 OFFCURVE",
"1864 1065 CURVE SMOOTH",
"1864 1182 OFFCURVE",
"1763 1268 OFFCURVE",
"1628 1268 CURVE SMOOTH",
"1481 1268 OFFCURVE",
"1391 1185 OFFCURVE",
"1315 956 CURVE",
"1169 995 OFFCURVE",
"1041 1050 OFFCURVE",
"932 1122 CURVE",
"987 1298 LINE",
"817 1298 LINE",
"740 1259 OFFCURVE",
"650 1239 OFFCURVE",
"545 1239 CURVE SMOOTH",
"441 1239 OFFCURVE",
"330 1259 OFFCURVE",
"211 1298 CURVE",
"156 1171 LINE",
"235 1134 OFFCURVE",
"404 1100 OFFCURVE",
"541 1100 CURVE SMOOTH",
"630 1100 OFFCURVE",
"706 1112 OFFCURVE",
"770 1135 CURVE",
"418 0 LINE"
);
},
{
closed = 1;
nodes = (
"1470 930 LINE",
"1511 1053 OFFCURVE",
"1551 1128 OFFCURVE",
"1632 1128 CURVE SMOOTH",
"1687 1128 OFFCURVE",
"1716 1092 OFFCURVE",
"1716 1047 CURVE SMOOTH",
"1716 983 OFFCURVE",
"1667 924 OFFCURVE",
"1550 924 CURVE"
);
}
);
width = 1978;
}
);
note = uni1728;
unicode = 1728;
},
{
glyphname = uni1729;
lastChange = "2016-11-10 13:56:02 +0000";
layers = (
{
layerId = "E064BCF7-6859-417C-9FBE-6CECC66FEE3E";
paths = (
{
closed = 1;
nodes = (
"440 0 LINE",
"641 129 OFFCURVE",
"859 304 OFFCURVE",
"1094 526 CURVE",
"1489 98 LINE",
"1597 197 LINE",
"1200 627 LINE",
"1359 781 OFFCURVE",
"1572 1005 OFFCURVE",
"1841 1298 CURVE",
"1645 1298 LINE",
"1234 842 OFFCURVE",
"800 434 OFFCURVE",
"475 190 CURVE",
"540 437 OFFCURVE",
"668 938 OFFCURVE",
"668 1047 CURVE SMOOTH",
"668 1095 OFFCURVE",
"643 1145 OFFCURVE",
"580 1145 CURVE SMOOTH",
"541 1145 OFFCURVE",
"493 1133 OFFCURVE",
"436 1110 CURVE SMOOTH",
"102 983 LINE",
"63 811 LINE",
"506 979 LINE",
"279 0 LINE"
);
}
);
width = 1788;
}
);
note = uni1729;
unicode = 1729;
},
{
glyphname = uni172A;
lastChange = "2016-11-10 13:56:02 +0000";
layers = (
{
layerId = "E064BCF7-6859-417C-9FBE-6CECC66FEE3E";
paths = (
{
closed = 1;
nodes = (
"496 0 LINE",
"1083 1298 LINE",
"963 1298 LINE",
"868 1267 OFFCURVE",
"742 1251 OFFCURVE",
"584 1251 CURVE SMOOTH",
"442 1251 OFFCURVE",
"320 1267 OFFCURVE",
"217 1298 CURVE",
"166 1174 LINE",
"259 1133 OFFCURVE",
"390 1112 OFFCURVE",
"561 1112 CURVE SMOOTH",
"665 1112 OFFCURVE",
"757 1119 OFFCURVE",
"836 1133 CURVE",
"322 0 LINE"
);
}
);
width = 1063;
}
);
note = uni172A;
unicode = 172A;
},
{
glyphname = uni172B;
lastChange = "2016-11-10 13:56:02 +0000";
layers = (
{
layerId = "E064BCF7-6859-417C-9FBE-6CECC66FEE3E";
paths = (
{
closed = 1;
nodes = (
"438 0 LINE",
"632 124 OFFCURVE",
"840 289 OFFCURVE",
"1061 496 CURVE",
"1513 111 LINE",
"1612 223 LINE",
"1167 596 LINE",
"1350 772 OFFCURVE",
"1574 1006 OFFCURVE",
"1839 1298 CURVE",
"1642 1298 LINE",
"1413 1049 OFFCURVE",
"1217 847 OFFCURVE",
"1055 692 CURVE",
"672 1014 LINE",
"683 1069 OFFCURVE",
"688 1107 OFFCURVE",
"688 1130 CURVE SMOOTH",
"688 1179 OFFCURVE",
"663 1229 OFFCURVE",
"600 1229 CURVE SMOOTH",
"569 1229 OFFCURVE",
"520 1216 OFFCURVE",
"455 1190 CURVE SMOOTH",
"123 1049 LINE",
"82 870 LINE",
"526 1063 LINE",
"276 0 LINE"
);
},
{
closed = 1;
nodes = (
"539 442 LINE",
"635 856 LINE",
"946 592 LINE",
"899 540 OFFCURVE",
"624 302 OFFCURVE",
"473 190 CURVE"
);
}
);
width = 1786;
}
);
note = uni172B;
unicode = 172B;
},
{
glyphname = uni172C;
lastChange = "2016-11-10 13:56:02 +0000";
layers = (
{
layerId = "E064BCF7-6859-417C-9FBE-6CECC66FEE3E";
paths = (
{
closed = 1;
nodes = (
"492 0 LINE",
"997 554 OFFCURVE",
"1275 861 OFFCURVE",
"1327 921 CURVE SMOOTH",
"1379 980 OFFCURVE",
"1414 1021 OFFCURVE",
"1432 1044 CURVE",
"1374 811 LINE",
"1186 0 LINE",
"1350 0 LINE",
"1649 1298 LINE",
"1487 1298 LINE",
"782 535 LINE",
"655 389 LINE",
"547 254 LINE",
"562 301 OFFCURVE",
"575 350 OFFCURVE",
"586 403 CURVE SMOOTH",
"690 842 LINE SMOOTH",
"734 1027 OFFCURVE",
"758 1121 OFFCURVE",
"758 1200 CURVE SMOOTH",
"758 1249 OFFCURVE",
"733 1300 OFFCURVE",
"670 1300 CURVE SMOOTH",
"625 1300 OFFCURVE",
"576 1287 OFFCURVE",
"524 1260 CURVE SMOOTH",
"127 1065 LINE",
"84 881 LINE",
"590 1128 LINE",
"330 0 LINE"
);
}
);
width = 1792;
}
);
note = uni172C;
unicode = 172C;
},
{
glyphname = uni172D;
lastChange = "2016-11-10 13:56:02 +0000";
layers = (
{
layerId = "E064BCF7-6859-417C-9FBE-6CECC66FEE3E";
paths = (
{
closed = 1;
nodes = (
"1104 604 LINE",
"1137 743 LINE",
"172 743 LINE",
"139 604 LINE"
);
}
);
width = 1255;
}
);
note = uni172D;
unicode = 172D;
},
{
glyphname = uni172E;
lastChange = "2016-11-10 13:56:02 +0000";
layers = (
{
layerId = "E064BCF7-6859-417C-9FBE-6CECC66FEE3E";
paths = (
{
closed = 1;
nodes = (
"1603 -174 OFFCURVE",
"1698 21 OFFCURVE",
"1698 172 CURVE SMOOTH",
"1698 273 OFFCURVE",
"1661 324 OFFCURVE",
"1587 324 CURVE SMOOTH",
"1554 324 OFFCURVE",
"1523 317 OFFCURVE",
"1493 303 CURVE",
"1204 190 LINE",
"1221 249 OFFCURVE",
"1307 619 OFFCURVE",
"1462 1298 CURVE",
"1300 1298 LINE",
"596 535 LINE",
"469 389 LINE",
"360 254 LINE",
"375 301 OFFCURVE",
"388 350 OFFCURVE",
"399 403 CURVE SMOOTH",
"606 1298 LINE",
"442 1298 LINE",
"143 0 LINE",
"305 0 LINE",
"810 554 OFFCURVE",
"1089 861 OFFCURVE",
"1141 921 CURVE SMOOTH",
"1193 980 OFFCURVE",
"1228 1021 OFFCURVE",
"1245 1044 CURVE",
"1188 811 LINE",
"999 0 LINE",
"1104 0 LINE",
"1550 166 LINE",
"1550 61 OFFCURVE",
"1480 -77 OFFCURVE",
"1339 -248 CURVE",
"1444 -338 LINE"
);
}
);
width = 1827;
}
);
note = uni172E;
unicode = 172E;
},
{
glyphname = uni172F;
lastChange = "2016-11-10 13:44:54 +0000";
layers = (
{
layerId = "E064BCF7-6859-417C-9FBE-6CECC66FEE3E";
paths = (
{
closed = 1;
nodes = (
"434 0 LINE",
"520 53 OFFCURVE",
"612 123 OFFCURVE",
"711 209 CURVE SMOOTH",
"907 381 OFFCURVE",
"1172 672 OFFCURVE",
"1341 965 CURVE",
"1374 817 OFFCURVE",
"1503 717 OFFCURVE",
"1659 717 CURVE SMOOTH",
"1823 717 OFFCURVE",
"1939 797 OFFCURVE",
"2079 1010 CURVE",
"1972 1096 LINE",
"1899 993 OFFCURVE",
"1841 928 OFFCURVE",
"1800 899 CURVE SMOOTH",
"1758 870 OFFCURVE",
"1713 856 OFFCURVE",
"1665 856 CURVE SMOOTH",
"1540 856 OFFCURVE",
"1458 962 OFFCURVE",
"1458 1147 CURVE SMOOTH",
"1458 1298 LINE",
"1354 1298 LINE",
"1282 1159 LINE SMOOTH",
"1154 904 OFFCURVE",
"968 658 OFFCURVE",
"725 422 CURVE SMOOTH",
"539 240 LINE",
"606 483 LINE",
"686 823 LINE SMOOTH",
"734 1020 OFFCURVE",
"758 1145 OFFCURVE",
"758 1200 CURVE SMOOTH",
"758 1249 OFFCURVE",
"733 1298 OFFCURVE",
"670 1298 CURVE SMOOTH",
"627 1298 OFFCURVE",
"579 1285 OFFCURVE",
"524 1260 CURVE SMOOTH",
"127 1065 LINE",
"84 881 LINE",
"596 1133 LINE",
"334 0 LINE"
);
}
);
width = 2083;
}
);
note = uni172F;
unicode = 172F;
},
{
glyphname = uni1730;
lastChange = "2016-11-10 13:56:02 +0000";
layers = (
{
layerId = "E064BCF7-6859-417C-9FBE-6CECC66FEE3E";
paths = (
{
closed = 1;
nodes = (
"1751 -285 LINE",
"1751 2 OFFCURVE",
"1810 265 OFFCURVE",
"1917 408 CURVE",
"1788 408 LINE",
"1643 289 OFFCURVE",
"1432 184 OFFCURVE",
"1309 160 CURVE",
"1451 422 OFFCURVE",
"1575 801 OFFCURVE",
"1681 1298 CURVE",
"1520 1298 LINE",
"1260 1030 LINE SMOOTH",
"931 689 OFFCURVE",
"647 428 OFFCURVE",
"410 248 CURVE",
"449 330 OFFCURVE",
"486 417 OFFCURVE",
"520 509 CURVE SMOOTH",
"588 693 OFFCURVE",
"707 1096 OFFCURVE",
"707 1200 CURVE SMOOTH",
"707 1249 OFFCURVE",
"682 1298 OFFCURVE",
"618 1298 CURVE SMOOTH",
"571 1298 OFFCURVE",
"521 1287 OFFCURVE",
"469 1266 CURVE SMOOTH",
"137 1128 LINE",
"98 956 LINE",
"541 1137 LINE",
"426 672 OFFCURVE",
"316 391 OFFCURVE",
"131 0 CURVE",
"293 0 LINE",
"543 150 OFFCURVE",
"843 403 OFFCURVE",
"1194 760 CURVE SMOOTH",
"1458 1028 LINE",
"1341 611 OFFCURVE",
"1241 341 OFFCURVE",
"1077 0 CURVE",
"1116 0 LINE SMOOTH",
"1284 0 OFFCURVE",
"1463 50 OFFCURVE",
"1653 150 CURVE",
"1619 50 OFFCURVE",
"1602 -95 OFFCURVE",
"1602 -285 CURVE"
);
}
);
width = 1962;
}
);
note = uni1730;
unicode = 1730;
},
{
glyphname = uni1731;
lastChange = "2016-11-10 13:56:02 +0000";
layers = (
{
layerId = "E064BCF7-6859-417C-9FBE-6CECC66FEE3E";
paths = (
{
closed = 1;
nodes = (
"303 0 LINE",
"648 216 OFFCURVE",
"1115 649 OFFCURVE",
"1704 1298 CURVE",
"1507 1298 LINE",
"1098 842 OFFCURVE",
"663 434 OFFCURVE",
"338 190 CURVE",
"414 483 LINE",
"604 1298 LINE",
"442 1298 LINE",
"141 0 LINE"
);
}
);
width = 1649;
}
);
note = uni1731;
unicode = 1731;
},
{
glyphname = uni1732;
lastChange = "2016-11-10 13:56:02 +0000";
layers = (
{
layerId = "E064BCF7-6859-417C-9FBE-6CECC66FEE3E";
paths = (
{
closed = 1;
nodes = (
"-244 1499 LINE",
"-211 1638 LINE",
"-805 1638 LINE",
"-838 1499 LINE"
);
}
);
width = 0;
}
);
note = uni1732;
unicode = 1732;
},
{
glyphname = uni1733;
lastChange = "2016-11-10 13:56:02 +0000";
layers = (
{
layerId = "E064BCF7-6859-417C-9FBE-6CECC66FEE3E";
paths = (
{
closed = 1;
nodes = (
"-197 0 LINE",
"-164 139 LINE",
"-758 139 LINE",
"-791 0 LINE"
);
}
);
width = 0;
}
);
note = uni1733;
unicode = 1733;
},
{
glyphname = uni1734;
lastChange = "2016-11-10 13:56:02 +0000";
layers = (
{
layerId = "E064BCF7-6859-417C-9FBE-6CECC66FEE3E";
paths = (
{
closed = 1;
nodes = (
"-475 -285 OFFCURVE",
"-136 -219 OFFCURVE",
"158 -86 CURVE SMOOTH",
"745 179 OFFCURVE",
"1149 744 OFFCURVE",
"1288 1536 CURVE",
"1126 1536 LINE",
"930 465 OFFCURVE",
"224 -145 OFFCURVE",
"-827 -145 CURVE",
"-858 -285 LINE"
);
}
);
width = 1415;
}
);
note = uni1734;
unicode = 1734;
},
{
glyphname = uni1735;
lastChange = "2016-11-10 13:56:02 +0000";
layers = (
{
layerId = "E064BCF7-6859-417C-9FBE-6CECC66FEE3E";
paths = (
{
closed = 1;
nodes = (
"178 -285 LINE",
"598 1536 LINE",
"455 1536 LINE",
"37 -285 LINE"
);
}
);
width = 674;
}
);
note = uni1735;
unicode = 1735;
},
{
glyphname = uni1725_i;
lastChange = "2016-11-10 13:55:52 +0000";
layers = (
{
layerId = "E064BCF7-6859-417C-9FBE-6CECC66FEE3E";
paths = (
{
closed = 1;
nodes = (
"305 0 LINE",
"505 129 OFFCURVE",
"723 304 OFFCURVE",
"958 526 CURVE",
"1354 98 LINE",
"1462 197 LINE",
"1069 629 LINE",
"1213 770 OFFCURVE",
"1423 991 OFFCURVE",
"1706 1298 CURVE",
"1509 1298 LINE",
"1328 1095 OFFCURVE",
"1151 911 OFFCURVE",
"968 735 CURVE",
"888 816 OFFCURVE",
"807 892 OFFCURVE",
"723 964 CURVE",
"627 850 LINE",
"708 782 OFFCURVE",
"784 709 OFFCURVE",
"859 632 CURVE",
"666 451 OFFCURVE",
"495 306 OFFCURVE",
"340 190 CURVE",
"350 231 OFFCURVE",
"361 273 OFFCURVE",
"373 314 CURVE SMOOTH",
"384 355 OFFCURVE",
"395 398 OFFCURVE",
"406 442 CURVE SMOOTH",
"606 1298 LINE",
"442 1298 LINE",
"143 0 LINE"
);
}
);
width = 1649;
}
);
note = uni1725_i;
},
{
glyphname = uni1725_u;
lastChange = "2016-11-10 13:56:02 +0000";
layers = (
{
layerId = "E064BCF7-6859-417C-9FBE-6CECC66FEE3E";
paths = (
{
closed = 1;
nodes = (
"305 0 LINE",
"505 129 OFFCURVE",
"723 304 OFFCURVE",
"958 526 CURVE",
"1354 98 LINE",
"1462 197 LINE",
"1069 629 LINE",
"1089 649 OFFCURVE",
"1111 671 OFFCURVE",
"1134 694 CURVE SMOOTH",
"1157 717 OFFCURVE",
"1182 741 OFFCURVE",
"1207 768 CURVE",
"1344 645 OFFCURVE",
"1469 512 OFFCURVE",
"1596 363 CURVE",
"1705 464 LINE",
"1581 615 OFFCURVE",
"1450 752 OFFCURVE",
"1311 876 CURVE",
"1423 993 OFFCURVE",
"1553 1131 OFFCURVE",
"1706 1298 CURVE",
"1509 1298 LINE",
"1304 1070 OFFCURVE",
"1099 859 OFFCURVE",
"893 664 CURVE SMOOTH",
"686 469 OFFCURVE",
"504 313 OFFCURVE",
"340 190 CURVE",
"350 231 OFFCURVE",
"361 273 OFFCURVE",
"373 314 CURVE SMOOTH",
"384 355 OFFCURVE",
"395 398 OFFCURVE",
"406 442 CURVE SMOOTH",
"606 1298 LINE",
"442 1298 LINE",
"143 0 LINE"
);
}
);
width = 1649;
}
);
note = uni1725_u;
},
{
glyphname = uni1726_u;
lastChange = "2016-11-10 13:56:02 +0000";
layers = (
{
layerId = "E064BCF7-6859-417C-9FBE-6CECC66FEE3E";
paths = (
{
closed = 1;
nodes = (
"305 0 LINE",
"938 823 LINE SMOOTH",
"988 892 OFFCURVE",
"1027 946 OFFCURVE",
"1056 987 CURVE SMOOTH",
"1085 1027 OFFCURVE",
"1103 1054 OFFCURVE",
"1112 1067 CURVE",
"1111 1056 OFFCURVE",
"1108 1027 OFFCURVE",
"1105 982 CURVE SMOOTH",
"1101 936 OFFCURVE",
"1096 871 OFFCURVE",
"1090 788 CURVE SMOOTH",
"1049 0 LINE",
"1210 0 LINE",
"2046 1298 LINE",
"1872 1298 LINE",
"1675 993 OFFCURVE",
"1526 760 OFFCURVE",
"1424 600 CURVE SMOOTH",
"1321 440 OFFCURVE",
"1266 353 OFFCURVE",
"1257 339 CURVE",
"1206 248 LINE",
"1221 341 OFFCURVE",
"1230 435 OFFCURVE",
"1233 532 CURVE SMOOTH",
"1276 1298 LINE",
"1114 1298 LINE",
"362 303 LINE",
"385 375 OFFCURVE",
"415 486 OFFCURVE",
"451 639 CURVE SMOOTH",
"488 792 OFFCURVE",
"539 1011 OFFCURVE",
"606 1298 CURVE",
"442 1298 LINE",
"143 0 LINE"
);
},
{
closed = 1;
nodes = (
"1764 234 OFFCURVE",
"1811 295 OFFCURVE",
"1859 361 CURVE SMOOTH",
"1906 427 OFFCURVE",
"1954 497 OFFCURVE",
"1995 562 CURVE SMOOTH",
"2036 626 OFFCURVE",
"2072 685 OFFCURVE",
"2095 726 CURVE",
"1969 798 LINE",
"1888 653 OFFCURVE",
"1770 476 OFFCURVE",
"1609 275 CURVE",
"1724 190 LINE"
);
}
);
width = 2020;
}
);
note = uni1726_u;
},
{
glyphname = uni1727_i;
lastChange = "2016-11-10 13:56:02 +0000";
layers = (
{
layerId = "E064BCF7-6859-417C-9FBE-6CECC66FEE3E";
paths = (
{
closed = 1;
nodes = (
"444 0 LINE",
"693 156 OFFCURVE",
"950 379 OFFCURVE",
"1191 615 CURVE SMOOTH",
"1432 850 OFFCURVE",
"1660 1094 OFFCURVE",
"1845 1298 CURVE",
"1649 1298 LINE",
"1506 1141 OFFCURVE",
"1348 972 OFFCURVE",
"1184 811 CURVE SMOOTH",
"1020 650 OFFCURVE",
"849 493 OFFCURVE",
"688 358 CURVE SMOOTH",
"654 331 OFFCURVE",
"619 302 OFFCURVE",
"583 272 CURVE SMOOTH",
"546 242 OFFCURVE",
"512 215 OFFCURVE",
"479 190 CURVE",
"494 241 OFFCURVE",
"507 286 OFFCURVE",
"516 325 CURVE SMOOTH",
"525 364 OFFCURVE",
"535 403 OFFCURVE",
"545 442 CURVE SMOOTH",
"555 483 LINE SMOOTH",
"567 534 OFFCURVE",
"577 575 OFFCURVE",
"585 607 CURVE SMOOTH",
"592 639 OFFCURVE",
"598 666 OFFCURVE",
"602 687 CURVE SMOOTH",
"610 730 OFFCURVE",
"612 758 OFFCURVE",
"612 797 CURVE SMOOTH",
"612 846 OFFCURVE",
"587 895 OFFCURVE",
"524 895 CURVE SMOOTH",
"477 895 OFFCURVE",
"434 875 OFFCURVE",
"379 854 CURVE SMOOTH",
"45 719 LINE",
"4 541 LINE",
"449 725 LINE",
"283 0 LINE"
);
},
{
closed = 1;
nodes = (
"676 1049 LINE",
"709 1188 LINE",
"115 1188 LINE",
"82 1049 LINE"
);
}
);
width = 1782;
}
);
note = uni1727_i;
},
{
glyphname = uni1727_u;
lastChange = "2016-11-10 13:56:02 +0000";
layers = (
{
layerId = "E064BCF7-6859-417C-9FBE-6CECC66FEE3E";
paths = (
{
closed = 1;
nodes = (
"444 0 LINE",
"693 156 OFFCURVE",
"950 379 OFFCURVE",
"1191 615 CURVE SMOOTH",
"1432 850 OFFCURVE",
"1660 1094 OFFCURVE",
"1845 1298 CURVE",
"1649 1298 LINE",
"1506 1141 OFFCURVE",
"1348 972 OFFCURVE",
"1184 811 CURVE SMOOTH",
"1020 650 OFFCURVE",
"849 493 OFFCURVE",
"688 358 CURVE SMOOTH",
"654 331 OFFCURVE",
"619 302 OFFCURVE",
"583 272 CURVE SMOOTH",
"546 242 OFFCURVE",
"512 215 OFFCURVE",
"479 190 CURVE",
"494 241 OFFCURVE",
"507 286 OFFCURVE",
"516 325 CURVE SMOOTH",
"525 364 OFFCURVE",
"535 403 OFFCURVE",
"545 442 CURVE SMOOTH",
"555 483 LINE SMOOTH",
"567 534 OFFCURVE",
"577 575 OFFCURVE",
"585 607 CURVE SMOOTH",
"592 639 OFFCURVE",
"598 666 OFFCURVE",
"602 687 CURVE SMOOTH",
"610 730 OFFCURVE",
"612 758 OFFCURVE",
"612 797 CURVE SMOOTH",
"612 846 OFFCURVE",
"587 895 OFFCURVE",
"524 895 CURVE SMOOTH",
"477 895 OFFCURVE",
"434 875 OFFCURVE",
"379 854 CURVE SMOOTH",
"45 719 LINE",
"4 541 LINE",
"449 725 LINE",
"283 0 LINE"
);
},
{
closed = 1;
nodes = (
"1381 290 OFFCURVE",
"1553 423 OFFCURVE",
"1708 569 CURVE",
"1606 678 LINE",
"1494 574 OFFCURVE",
"1388 480 OFFCURVE",
"1104 289 CURVE",
"1192 170 LINE"
);
},
{
closed = 1;
nodes = (
"682 1024 LINE",
"764 1380 LINE",
"600 1380 LINE",
"518 1024 LINE"
);
}
);
width = 1782;
}
);
note = uni1727_u;
},
{
glyphname = uni1729_i;
lastChange = "2016-11-10 13:56:02 +0000";
layers = (
{
layerId = "E064BCF7-6859-417C-9FBE-6CECC66FEE3E";
paths = (
{
closed = 1;
nodes = (
"440 0 LINE",
"641 129 OFFCURVE",
"859 304 OFFCURVE",
"1094 526 CURVE",
"1489 98 LINE",
"1597 197 LINE",
"1200 627 LINE",
"1359 781 OFFCURVE",
"1572 1005 OFFCURVE",
"1841 1298 CURVE",
"1645 1298 LINE",
"1464 1097 OFFCURVE",
"1284 910 OFFCURVE",
"1103 736 CURVE",
"1023 817 OFFCURVE",
"942 892 OFFCURVE",
"858 964 CURVE",
"762 850 LINE",
"842 781 OFFCURVE",
"919 709 OFFCURVE",
"994 632 CURVE",
"801 453 OFFCURVE",
"628 305 OFFCURVE",
"475 190 CURVE",
"540 437 OFFCURVE",
"668 938 OFFCURVE",
"668 1047 CURVE SMOOTH",
"668 1095 OFFCURVE",
"643 1145 OFFCURVE",
"580 1145 CURVE SMOOTH",
"541 1145 OFFCURVE",
"493 1133 OFFCURVE",
"436 1110 CURVE SMOOTH",
"102 983 LINE",
"63 811 LINE",
"506 979 LINE",
"279 0 LINE"
);
}
);
width = 1788;
}
);
note = uni1729_i;
},
{
glyphname = uni1729_u;
lastChange = "2016-11-10 13:56:02 +0000";
layers = (
{
layerId = "E064BCF7-6859-417C-9FBE-6CECC66FEE3E";
paths = (
{
closed = 1;
nodes = (
"440 0 LINE",
"641 129 OFFCURVE",
"859 304 OFFCURVE",
"1094 526 CURVE",
"1489 98 LINE",
"1597 197 LINE",
"1200 627 LINE",
"1243 669 OFFCURVE",
"1291 716 OFFCURVE",
"1342 768 CURVE",
"1479 645 OFFCURVE",
"1603 512 OFFCURVE",
"1731 363 CURVE",
"1840 464 LINE",
"1715 616 OFFCURVE",
"1584 753 OFFCURVE",
"1446 875 CURVE",
"1561 995 OFFCURVE",
"1692 1136 OFFCURVE",
"1841 1298 CURVE",
"1645 1298 LINE",
"1234 842 OFFCURVE",
"800 434 OFFCURVE",
"475 190 CURVE",
"540 437 OFFCURVE",
"668 938 OFFCURVE",
"668 1047 CURVE SMOOTH",
"668 1095 OFFCURVE",
"643 1145 OFFCURVE",
"580 1145 CURVE SMOOTH",
"541 1145 OFFCURVE",
"493 1133 OFFCURVE",
"436 1110 CURVE SMOOTH",
"102 983 LINE",
"63 811 LINE",
"506 979 LINE",
"279 0 LINE"
);
}
);
width = 1788;
}
);
note = uni1729_u;
},
{
glyphname = uni172B_u;
lastChange = "2016-11-10 13:56:02 +0000";
layers = (
{
layerId = "E064BCF7-6859-417C-9FBE-6CECC66FEE3E";
paths = (
{
closed = 1;
nodes = (
"1467 71 LINE SMOOTH",
"1535 127 OFFCURVE",
"1567 167 OFFCURVE",
"1567 207 CURVE SMOOTH",
"1567 250 OFFCURVE",
"1529 292 OFFCURVE",
"1453 356 CURVE SMOOTH",
"1167 596 LINE",
"1350 772 OFFCURVE",
"1574 1006 OFFCURVE",
"1839 1298 CURVE",
"1642 1298 LINE",
"1411 1047 OFFCURVE",
"1218 848 OFFCURVE",
"1055 692 CURVE",
"672 1014 LINE",
"683 1067 OFFCURVE",
"688 1106 OFFCURVE",
"688 1130 CURVE SMOOTH",
"688 1154 OFFCURVE",
"682 1179 OFFCURVE",
"668 1198 CURVE SMOOTH",
"654 1217 OFFCURVE",
"632 1229 OFFCURVE",
"600 1229 CURVE SMOOTH",
"569 1229 OFFCURVE",
"519 1217 OFFCURVE",
"455 1190 CURVE SMOOTH",
"123 1049 LINE",
"82 870 LINE",
"526 1063 LINE",
"276 0 LINE",
"438 0 LINE",
"633 125 OFFCURVE",
"838 288 OFFCURVE",
"1061 496 CURVE",
"1397 209 LINE",
"1313 125 OFFCURVE",
"1221 49 OFFCURVE",
"1117 -31 CURVE",
"1215 -142 LINE"
);
},
{
closed = 1;
nodes = (
"484 232 OFFCURVE",
"495 274 OFFCURVE",
"507 315 CURVE SMOOTH",
"518 356 OFFCURVE",
"529 398 OFFCURVE",
"539 442 CURVE SMOOTH",
"635 856 LINE",
"946 592 LINE",
"922 565 OFFCURVE",
"856 505 OFFCURVE",
"748 413 CURVE SMOOTH",
"640 320 OFFCURVE",
"549 246 OFFCURVE",
"473 190 CURVE"
);
}
);
width = 1786;
}
);
note = uni172B_u;
},
{
glyphname = uni172D_i;
lastChange = "2016-11-10 13:56:02 +0000";
layers = (
{
layerId = "E064BCF7-6859-417C-9FBE-6CECC66FEE3E";
paths = (
{
closed = 1;
nodes = (
"566 0 LINE",
"705 604 LINE",
"1134 604 LINE",
"1167 743 LINE",
"737 743 LINE",
"830 1148 LINE",
"1164 1095 LINE",
"1202 1232 LINE",
"949 1279 LINE SMOOTH",
"902 1288 OFFCURVE",
"845 1298 OFFCURVE",
"800 1298 CURVE SMOOTH",
"763 1298 OFFCURVE",
"733 1278 OFFCURVE",
"710 1250 CURVE SMOOTH",
"687 1222 OFFCURVE",
"672 1185 OFFCURVE",
"664 1150 CURVE SMOOTH",
"571 743 LINE",
"172 743 LINE",
"139 604 LINE",
"540 604 LINE",
"403 0 LINE"
);
}
);
width = 1322;
}
);
note = uni172D_i;
},
{
glyphname = uni172D_u;
lastChange = "2016-11-10 13:56:02 +0000";
layers = (
{
layerId = "E064BCF7-6859-417C-9FBE-6CECC66FEE3E";
paths = (
{
closed = 1;
nodes = (
"543 -15 OFFCURVE",
"605 -5 OFFCURVE",
"656 4 CURVE SMOOTH",
"930 51 LINE",
"955 188 LINE",
"598 138 LINE",
"704 604 LINE",
"1134 604 LINE",
"1167 743 LINE",
"735 743 LINE",
"858 1283 LINE",
"695 1283 LINE",
"571 743 LINE",
"172 743 LINE",
"139 604 LINE",
"540 604 LINE",
"451 215 LINE SMOOTH",
"449 205 OFFCURVE",
"446 193 OFFCURVE",
"443 180 CURVE SMOOTH",
"440 166 OFFCURVE",
"437 152 OFFCURVE",
"434 139 CURVE SMOOTH",
"428 112 OFFCURVE",
"423 88 OFFCURVE",
"423 79 CURVE SMOOTH",
"423 28 OFFCURVE",
"443 -15 OFFCURVE",
"498 -15 CURVE SMOOTH"
);
}
);
width = 1322;
}
);
note = uni172D_u;
},
{
glyphname = uni172E_u;
lastChange = "2016-11-10 13:56:02 +0000";
layers = (
{
layerId = "E064BCF7-6859-417C-9FBE-6CECC66FEE3E";
paths = (
{
closed = 1;
nodes = (
"1601 -175 OFFCURVE",
"1698 23 OFFCURVE",
"1698 172 CURVE SMOOTH",
"1698 273 OFFCURVE",
"1661 324 OFFCURVE",
"1587 324 CURVE SMOOTH",
"1554 324 OFFCURVE",
"1524 315 OFFCURVE",
"1493 303 CURVE SMOOTH",
"1204 190 LINE",
"1213 219 OFFCURVE",
"1239 327 OFFCURVE",
"1282 512 CURVE SMOOTH",
"1325 697 OFFCURVE",
"1385 959 OFFCURVE",
"1462 1298 CURVE",
"1300 1298 LINE",
"469 389 LINE",
"360 254 LINE",
"375 301 OFFCURVE",
"387 350 OFFCURVE",
"399 403 CURVE SMOOTH",
"606 1298 LINE",
"442 1298 LINE",
"143 0 LINE",
"305 0 LINE",
"1141 920 LINE SMOOTH",
"1194 980 OFFCURVE",
"1228 1021 OFFCURVE",
"1245 1044 CURVE",
"999 0 LINE",
"1104 0 LINE",
"1550 166 LINE",
"1550 61 OFFCURVE",
"1480 -77 OFFCURVE",
"1339 -248 CURVE",
"1444 -338 LINE"
);
},
{
closed = 1;
nodes = (
"1745 470 LINE",
"1778 609 LINE",
"1381 609 LINE",
"1348 470 LINE"
);
}
);
width = 1827;
}
);
note = uni172E_u;
},
{
glyphname = uni1730_u;
lastChange = "2016-11-10 13:56:02 +0000";
layers = (
{
layerId = "E064BCF7-6859-417C-9FBE-6CECC66FEE3E";
paths = (
{
closed = 1;
nodes = (
"1751 -285 LINE",
"1751 2 OFFCURVE",
"1810 265 OFFCURVE",
"1917 408 CURVE",
"1788 408 LINE",
"1643 289 OFFCURVE",
"1432 184 OFFCURVE",
"1309 160 CURVE",
"1451 422 OFFCURVE",
"1575 801 OFFCURVE",
"1681 1298 CURVE",
"1520 1298 LINE",
"1260 1030 LINE SMOOTH",
"931 689 OFFCURVE",
"647 428 OFFCURVE",
"410 248 CURVE",
"449 330 OFFCURVE",
"486 417 OFFCURVE",
"520 509 CURVE SMOOTH",
"588 693 OFFCURVE",
"707 1096 OFFCURVE",
"707 1200 CURVE SMOOTH",
"707 1249 OFFCURVE",
"682 1298 OFFCURVE",
"618 1298 CURVE SMOOTH",
"571 1298 OFFCURVE",
"521 1287 OFFCURVE",
"469 1266 CURVE SMOOTH",
"137 1128 LINE",
"98 956 LINE",
"541 1137 LINE",
"426 672 OFFCURVE",
"316 391 OFFCURVE",
"131 0 CURVE",
"293 0 LINE",
"543 150 OFFCURVE",
"843 403 OFFCURVE",
"1194 760 CURVE SMOOTH",
"1458 1028 LINE",
"1341 611 OFFCURVE",
"1241 341 OFFCURVE",
"1077 0 CURVE",
"1116 0 LINE SMOOTH",
"1284 0 OFFCURVE",
"1463 50 OFFCURVE",
"1653 150 CURVE",
"1619 50 OFFCURVE",
"1602 -95 OFFCURVE",
"1602 -285 CURVE"
);
},
{
closed = 1;
nodes = (
"1965 550 LINE",
"1998 689 LINE",
"1601 689 LINE",
"1568 550 LINE"
);
}
);
width = 1962;
}
);
note = uni1730_u;
},
{
glyphname = uni1731_i;
lastChange = "2016-11-10 13:56:02 +0000";
layers = (
{
layerId = "E064BCF7-6859-417C-9FBE-6CECC66FEE3E";
paths = (
{
closed = 1;
nodes = (
"303 0 LINE",
"647 215 OFFCURVE",
"1114 648 OFFCURVE",
"1704 1298 CURVE",
"1507 1298 LINE",
"1302 1070 OFFCURVE",
"1097 859 OFFCURVE",
"891 664 CURVE SMOOTH",
"684 469 OFFCURVE",
"502 313 OFFCURVE",
"338 190 CURVE",
"350 240 OFFCURVE",
"363 289 OFFCURVE",
"377 338 CURVE SMOOTH",
"390 386 OFFCURVE",
"403 434 OFFCURVE",
"414 483 CURVE SMOOTH",
"604 1298 LINE",
"442 1298 LINE",
"141 0 LINE"
);
},
{
closed = 1;
nodes = (
"1063 1286 OFFCURVE",
"1147 1369 OFFCURVE",
"1222 1449 CURVE SMOOTH",
"1297 1528 OFFCURVE",
"1364 1605 OFFCURVE",
"1404 1654 CURVE",
"1293 1744 LINE",
"1196 1624 OFFCURVE",
"1066 1484 OFFCURVE",
"895 1329 CURVE",
"994 1226 LINE"
);
}
);
width = 1649;
}
);
note = uni1731_i;
},
{
glyphname = uni1731_u;
lastChange = "2016-11-10 13:56:02 +0000";
layers = (
{
layerId = "E064BCF7-6859-417C-9FBE-6CECC66FEE3E";
paths = (
{
closed = 1;
nodes = (
"303 0 LINE",
"647 215 OFFCURVE",
"1114 648 OFFCURVE",
"1704 1298 CURVE",
"1507 1298 LINE",
"1302 1070 OFFCURVE",
"1097 859 OFFCURVE",
"891 664 CURVE SMOOTH",
"684 469 OFFCURVE",
"502 313 OFFCURVE",
"338 190 CURVE",
"350 240 OFFCURVE",
"363 289 OFFCURVE",
"377 338 CURVE SMOOTH",
"390 386 OFFCURVE",
"403 434 OFFCURVE",
"414 483 CURVE SMOOTH",
"604 1298 LINE",
"442 1298 LINE",
"141 0 LINE"
);
},
{
closed = 1;
nodes = (
"1158 251 OFFCURVE",
"1215 304 OFFCURVE",
"1272 361 CURVE SMOOTH",
"1329 417 OFFCURVE",
"1389 479 OFFCURVE",
"1441 536 CURVE SMOOTH",
"1493 592 OFFCURVE",
"1538 644 OFFCURVE",
"1567 681 CURVE",
"1450 775 LINE",
"1345 646 OFFCURVE",
"1200 491 OFFCURVE",
"1007 320 CURVE",
"1111 215 LINE"
);
}
);
width = 1649;
}
);
note = uni1731_u;
},
{
glyphname = uni1735.alt;
lastChange = "2016-11-10 13:56:02 +0000";
layers = (
{
layerId = "E064BCF7-6859-417C-9FBE-6CECC66FEE3E";
paths = (
{
closed = 1;
nodes = (
"408 -285 LINE",
"408 1536 LINE",
"264 1536 LINE",
"264 -285 LINE"
);
}
);
width = 674;
}
);
note = uni1735.alt;
},
{
glyphname = uni1736.alt;
lastChange = "2016-11-10 13:56:02 +0000";
layers = (
{
layerId = "E064BCF7-6859-417C-9FBE-6CECC66FEE3E";
paths = (
{
closed = 1;
nodes = (
"408 -285 LINE",
"408 1536 LINE",
"264 1536 LINE",
"264 -285 LINE"
);
},
{
closed = 1;
nodes = (
"735 -285 LINE",
"735 1536 LINE",
"592 1536 LINE",
"592 -285 LINE"
);
}
);
width = 999;
}
);
note = uni1736.alt;
},
